<mxfile host="app.diagrams.net" agent="Mozilla/5.0 (Windows NT 10.0; Win64; x64) AppleWebKit/537.36 (KHTML, like Gecko) Chrome/130.0.0.0 Safari/537.36" version="24.8.3">
  <diagram name="Страница — 1" id="NswS1KVfmSA2DbpRanFU">
    <mxGraphModel dx="819" dy="434" grid="1" gridSize="10" guides="1" tooltips="1" connect="1" arrows="1" fold="1" page="1" pageScale="1" pageWidth="827" pageHeight="1169" math="0" shadow="0">
      <root>
        <mxCell id="0" />
        <mxCell id="1" parent="0" />
        <mxCell id="vdaxjqXT8XuvJRHG-bB9-1" value="X1" style="ellipse;whiteSpace=wrap;html=1;aspect=fixed;" vertex="1" parent="1">
          <mxGeometry x="240" y="50" width="30" height="30" as="geometry" />
        </mxCell>
        <mxCell id="vdaxjqXT8XuvJRHG-bB9-2" value="X2" style="ellipse;whiteSpace=wrap;html=1;aspect=fixed;" vertex="1" parent="1">
          <mxGeometry x="320" y="50" width="30" height="30" as="geometry" />
        </mxCell>
        <mxCell id="vdaxjqXT8XuvJRHG-bB9-4" value="X3" style="ellipse;whiteSpace=wrap;html=1;aspect=fixed;" vertex="1" parent="1">
          <mxGeometry x="280" y="100" width="30" height="30" as="geometry" />
        </mxCell>
        <mxCell id="vdaxjqXT8XuvJRHG-bB9-46" value="V25" style="edgeStyle=orthogonalEdgeStyle;rounded=0;orthogonalLoop=1;jettySize=auto;html=1;entryX=0.5;entryY=0;entryDx=0;entryDy=0;curved=1;" edge="1" parent="1" source="vdaxjqXT8XuvJRHG-bB9-5" target="vdaxjqXT8XuvJRHG-bB9-12">
          <mxGeometry relative="1" as="geometry" />
        </mxCell>
        <mxCell id="vdaxjqXT8XuvJRHG-bB9-5" value="X4" style="ellipse;whiteSpace=wrap;html=1;aspect=fixed;" vertex="1" parent="1">
          <mxGeometry x="370" y="100" width="30" height="30" as="geometry" />
        </mxCell>
        <mxCell id="vdaxjqXT8XuvJRHG-bB9-6" value="X6" style="ellipse;whiteSpace=wrap;html=1;aspect=fixed;" vertex="1" parent="1">
          <mxGeometry x="320" y="150" width="30" height="30" as="geometry" />
        </mxCell>
        <mxCell id="vdaxjqXT8XuvJRHG-bB9-7" value="X7" style="ellipse;whiteSpace=wrap;html=1;aspect=fixed;" vertex="1" parent="1">
          <mxGeometry x="280" y="200" width="30" height="30" as="geometry" />
        </mxCell>
        <mxCell id="vdaxjqXT8XuvJRHG-bB9-45" value="V26" style="edgeStyle=orthogonalEdgeStyle;rounded=0;orthogonalLoop=1;jettySize=auto;html=1;exitX=0;exitY=0.5;exitDx=0;exitDy=0;entryX=0.5;entryY=0;entryDx=0;entryDy=0;curved=1;" edge="1" parent="1" source="vdaxjqXT8XuvJRHG-bB9-8" target="vdaxjqXT8XuvJRHG-bB9-9">
          <mxGeometry relative="1" as="geometry" />
        </mxCell>
        <mxCell id="vdaxjqXT8XuvJRHG-bB9-8" value="X5" style="ellipse;whiteSpace=wrap;html=1;aspect=fixed;" vertex="1" parent="1">
          <mxGeometry x="240" y="150" width="30" height="30" as="geometry" />
        </mxCell>
        <mxCell id="vdaxjqXT8XuvJRHG-bB9-9" value="X12" style="ellipse;whiteSpace=wrap;html=1;aspect=fixed;" vertex="1" parent="1">
          <mxGeometry x="200" y="260" width="30" height="30" as="geometry" />
        </mxCell>
        <mxCell id="vdaxjqXT8XuvJRHG-bB9-43" value="V23" style="edgeStyle=orthogonalEdgeStyle;rounded=0;orthogonalLoop=1;jettySize=auto;html=1;entryX=0;entryY=0.5;entryDx=0;entryDy=0;curved=1;exitX=0.5;exitY=1;exitDx=0;exitDy=0;" edge="1" parent="1" source="vdaxjqXT8XuvJRHG-bB9-10" target="vdaxjqXT8XuvJRHG-bB9-1">
          <mxGeometry relative="1" as="geometry">
            <Array as="points">
              <mxPoint x="255" y="360" />
              <mxPoint x="160" y="360" />
              <mxPoint x="160" y="65" />
            </Array>
          </mxGeometry>
        </mxCell>
        <mxCell id="vdaxjqXT8XuvJRHG-bB9-10" value="X14" style="ellipse;whiteSpace=wrap;html=1;aspect=fixed;" vertex="1" parent="1">
          <mxGeometry x="240" y="310" width="30" height="30" as="geometry" />
        </mxCell>
        <mxCell id="vdaxjqXT8XuvJRHG-bB9-11" value="X15" style="ellipse;whiteSpace=wrap;html=1;aspect=fixed;" vertex="1" parent="1">
          <mxGeometry x="410" y="310" width="30" height="30" as="geometry" />
        </mxCell>
        <mxCell id="vdaxjqXT8XuvJRHG-bB9-12" value="X13" style="ellipse;whiteSpace=wrap;html=1;aspect=fixed;" vertex="1" parent="1">
          <mxGeometry x="450" y="260" width="30" height="30" as="geometry" />
        </mxCell>
        <mxCell id="vdaxjqXT8XuvJRHG-bB9-13" value="X11" style="ellipse;whiteSpace=wrap;html=1;aspect=fixed;" vertex="1" parent="1">
          <mxGeometry x="370" y="260" width="30" height="30" as="geometry" />
        </mxCell>
        <mxCell id="vdaxjqXT8XuvJRHG-bB9-14" value="X10" style="ellipse;whiteSpace=wrap;html=1;aspect=fixed;" vertex="1" parent="1">
          <mxGeometry x="280" y="260" width="30" height="30" as="geometry" />
        </mxCell>
        <mxCell id="vdaxjqXT8XuvJRHG-bB9-15" value="X8" style="ellipse;whiteSpace=wrap;html=1;aspect=fixed;" vertex="1" parent="1">
          <mxGeometry x="370" y="200" width="30" height="30" as="geometry" />
        </mxCell>
        <mxCell id="vdaxjqXT8XuvJRHG-bB9-18" value="" style="endArrow=classic;startArrow=classic;html=1;rounded=0;exitX=1;exitY=0.5;exitDx=0;exitDy=0;entryX=0;entryY=0.5;entryDx=0;entryDy=0;" edge="1" parent="1" source="vdaxjqXT8XuvJRHG-bB9-1" target="vdaxjqXT8XuvJRHG-bB9-2">
          <mxGeometry width="50" height="50" relative="1" as="geometry">
            <mxPoint x="390" y="220" as="sourcePoint" />
            <mxPoint x="440" y="170" as="targetPoint" />
          </mxGeometry>
        </mxCell>
        <mxCell id="vdaxjqXT8XuvJRHG-bB9-25" value="V1" style="edgeLabel;html=1;align=center;verticalAlign=middle;resizable=0;points=[];" vertex="1" connectable="0" parent="vdaxjqXT8XuvJRHG-bB9-18">
          <mxGeometry x="-0.0158" y="1" relative="1" as="geometry">
            <mxPoint as="offset" />
          </mxGeometry>
        </mxCell>
        <mxCell id="vdaxjqXT8XuvJRHG-bB9-19" value="V2" style="endArrow=classic;html=1;rounded=0;exitX=0.5;exitY=1;exitDx=0;exitDy=0;entryX=0.5;entryY=0;entryDx=0;entryDy=0;" edge="1" parent="1" source="vdaxjqXT8XuvJRHG-bB9-1" target="vdaxjqXT8XuvJRHG-bB9-4">
          <mxGeometry width="50" height="50" relative="1" as="geometry">
            <mxPoint x="350" y="220" as="sourcePoint" />
            <mxPoint x="400" y="170" as="targetPoint" />
          </mxGeometry>
        </mxCell>
        <mxCell id="vdaxjqXT8XuvJRHG-bB9-20" value="V3" style="endArrow=classic;html=1;rounded=0;exitX=0.5;exitY=1;exitDx=0;exitDy=0;entryX=0.5;entryY=0;entryDx=0;entryDy=0;" edge="1" parent="1" source="vdaxjqXT8XuvJRHG-bB9-2" target="vdaxjqXT8XuvJRHG-bB9-4">
          <mxGeometry width="50" height="50" relative="1" as="geometry">
            <mxPoint x="350" y="220" as="sourcePoint" />
            <mxPoint x="400" y="170" as="targetPoint" />
          </mxGeometry>
        </mxCell>
        <mxCell id="vdaxjqXT8XuvJRHG-bB9-21" value="V4" style="endArrow=classic;startArrow=classic;html=1;rounded=0;entryX=0;entryY=0.5;entryDx=0;entryDy=0;exitX=1;exitY=0.5;exitDx=0;exitDy=0;" edge="1" parent="1" source="vdaxjqXT8XuvJRHG-bB9-4" target="vdaxjqXT8XuvJRHG-bB9-5">
          <mxGeometry width="50" height="50" relative="1" as="geometry">
            <mxPoint x="350" y="220" as="sourcePoint" />
            <mxPoint x="400" y="170" as="targetPoint" />
          </mxGeometry>
        </mxCell>
        <mxCell id="vdaxjqXT8XuvJRHG-bB9-22" value="V5" style="endArrow=classic;html=1;rounded=0;exitX=0.5;exitY=1;exitDx=0;exitDy=0;entryX=0.5;entryY=0;entryDx=0;entryDy=0;" edge="1" parent="1" source="vdaxjqXT8XuvJRHG-bB9-4" target="vdaxjqXT8XuvJRHG-bB9-6">
          <mxGeometry width="50" height="50" relative="1" as="geometry">
            <mxPoint x="350" y="220" as="sourcePoint" />
            <mxPoint x="400" y="170" as="targetPoint" />
          </mxGeometry>
        </mxCell>
        <mxCell id="vdaxjqXT8XuvJRHG-bB9-23" value="V6" style="endArrow=classic;html=1;rounded=0;entryX=0.5;entryY=0;entryDx=0;entryDy=0;exitX=0.533;exitY=1;exitDx=0;exitDy=0;exitPerimeter=0;" edge="1" parent="1" source="vdaxjqXT8XuvJRHG-bB9-5" target="vdaxjqXT8XuvJRHG-bB9-6">
          <mxGeometry width="50" height="50" relative="1" as="geometry">
            <mxPoint x="350" y="220" as="sourcePoint" />
            <mxPoint x="400" y="170" as="targetPoint" />
          </mxGeometry>
        </mxCell>
        <mxCell id="vdaxjqXT8XuvJRHG-bB9-24" value="V7" style="endArrow=classic;startArrow=classic;html=1;rounded=0;exitX=1;exitY=0.5;exitDx=0;exitDy=0;entryX=0;entryY=0.5;entryDx=0;entryDy=0;" edge="1" parent="1" source="vdaxjqXT8XuvJRHG-bB9-8" target="vdaxjqXT8XuvJRHG-bB9-6">
          <mxGeometry width="50" height="50" relative="1" as="geometry">
            <mxPoint x="350" y="220" as="sourcePoint" />
            <mxPoint x="330" y="165" as="targetPoint" />
          </mxGeometry>
        </mxCell>
        <mxCell id="vdaxjqXT8XuvJRHG-bB9-26" value="V8" style="endArrow=classic;html=1;rounded=0;exitX=0.5;exitY=1;exitDx=0;exitDy=0;entryX=0.5;entryY=0;entryDx=0;entryDy=0;" edge="1" parent="1" source="vdaxjqXT8XuvJRHG-bB9-8" target="vdaxjqXT8XuvJRHG-bB9-7">
          <mxGeometry width="50" height="50" relative="1" as="geometry">
            <mxPoint x="350" y="220" as="sourcePoint" />
            <mxPoint x="400" y="170" as="targetPoint" />
          </mxGeometry>
        </mxCell>
        <mxCell id="vdaxjqXT8XuvJRHG-bB9-27" value="V9" style="endArrow=classic;html=1;rounded=0;exitX=0.5;exitY=1;exitDx=0;exitDy=0;entryX=0.5;entryY=0;entryDx=0;entryDy=0;" edge="1" parent="1" source="vdaxjqXT8XuvJRHG-bB9-6" target="vdaxjqXT8XuvJRHG-bB9-7">
          <mxGeometry width="50" height="50" relative="1" as="geometry">
            <mxPoint x="255" y="190" as="sourcePoint" />
            <mxPoint x="305" y="210" as="targetPoint" />
          </mxGeometry>
        </mxCell>
        <mxCell id="vdaxjqXT8XuvJRHG-bB9-28" value="V10" style="endArrow=classic;startArrow=classic;html=1;rounded=0;exitX=1;exitY=0.5;exitDx=0;exitDy=0;entryX=0;entryY=0.5;entryDx=0;entryDy=0;" edge="1" parent="1" source="vdaxjqXT8XuvJRHG-bB9-7" target="vdaxjqXT8XuvJRHG-bB9-15">
          <mxGeometry width="50" height="50" relative="1" as="geometry">
            <mxPoint x="350" y="220" as="sourcePoint" />
            <mxPoint x="400" y="170" as="targetPoint" />
          </mxGeometry>
        </mxCell>
        <mxCell id="vdaxjqXT8XuvJRHG-bB9-29" value="V16" style="endArrow=classic;startArrow=classic;html=1;rounded=0;exitX=1;exitY=0.5;exitDx=0;exitDy=0;entryX=0;entryY=0.5;entryDx=0;entryDy=0;" edge="1" parent="1" source="vdaxjqXT8XuvJRHG-bB9-13" target="vdaxjqXT8XuvJRHG-bB9-12">
          <mxGeometry width="50" height="50" relative="1" as="geometry">
            <mxPoint x="350" y="220" as="sourcePoint" />
            <mxPoint x="540" y="270" as="targetPoint" />
          </mxGeometry>
        </mxCell>
        <mxCell id="vdaxjqXT8XuvJRHG-bB9-30" value="V14" style="endArrow=classic;html=1;rounded=0;entryX=0.5;entryY=0;entryDx=0;entryDy=0;exitX=0.5;exitY=1;exitDx=0;exitDy=0;" edge="1" parent="1" source="vdaxjqXT8XuvJRHG-bB9-7" target="vdaxjqXT8XuvJRHG-bB9-13">
          <mxGeometry x="0.5" y="-8" width="50" height="50" relative="1" as="geometry">
            <mxPoint x="350" y="220" as="sourcePoint" />
            <mxPoint x="400" y="170" as="targetPoint" />
            <mxPoint as="offset" />
          </mxGeometry>
        </mxCell>
        <mxCell id="vdaxjqXT8XuvJRHG-bB9-31" value="V13" style="endArrow=classic;html=1;rounded=0;entryX=0.5;entryY=0;entryDx=0;entryDy=0;exitX=0.5;exitY=1;exitDx=0;exitDy=0;" edge="1" parent="1" source="vdaxjqXT8XuvJRHG-bB9-15" target="vdaxjqXT8XuvJRHG-bB9-14">
          <mxGeometry x="0.5" y="8" width="50" height="50" relative="1" as="geometry">
            <mxPoint x="305" y="240" as="sourcePoint" />
            <mxPoint x="395" y="270" as="targetPoint" />
            <mxPoint as="offset" />
          </mxGeometry>
        </mxCell>
        <mxCell id="vdaxjqXT8XuvJRHG-bB9-32" value="V11" style="endArrow=classic;html=1;rounded=0;entryX=0.5;entryY=0;entryDx=0;entryDy=0;exitX=0.5;exitY=1;exitDx=0;exitDy=0;" edge="1" parent="1" source="vdaxjqXT8XuvJRHG-bB9-7" target="vdaxjqXT8XuvJRHG-bB9-14">
          <mxGeometry x="-0.3333" y="-15" width="50" height="50" relative="1" as="geometry">
            <mxPoint x="350" y="220" as="sourcePoint" />
            <mxPoint x="400" y="170" as="targetPoint" />
            <mxPoint as="offset" />
          </mxGeometry>
        </mxCell>
        <mxCell id="vdaxjqXT8XuvJRHG-bB9-33" value="V12" style="endArrow=classic;html=1;rounded=0;entryX=0.5;entryY=0;entryDx=0;entryDy=0;exitX=0.5;exitY=1;exitDx=0;exitDy=0;" edge="1" parent="1" source="vdaxjqXT8XuvJRHG-bB9-15" target="vdaxjqXT8XuvJRHG-bB9-13">
          <mxGeometry x="-0.3103" y="15" width="50" height="50" relative="1" as="geometry">
            <mxPoint x="315" y="250" as="sourcePoint" />
            <mxPoint x="405" y="280" as="targetPoint" />
            <mxPoint as="offset" />
          </mxGeometry>
        </mxCell>
        <mxCell id="vdaxjqXT8XuvJRHG-bB9-34" value="V15" style="endArrow=classic;startArrow=classic;html=1;rounded=0;exitX=1;exitY=0.5;exitDx=0;exitDy=0;entryX=0;entryY=0.5;entryDx=0;entryDy=0;" edge="1" parent="1" source="vdaxjqXT8XuvJRHG-bB9-9" target="vdaxjqXT8XuvJRHG-bB9-14">
          <mxGeometry width="50" height="50" relative="1" as="geometry">
            <mxPoint x="350" y="220" as="sourcePoint" />
            <mxPoint x="400" y="170" as="targetPoint" />
          </mxGeometry>
        </mxCell>
        <mxCell id="vdaxjqXT8XuvJRHG-bB9-35" value="V18" style="endArrow=classic;html=1;rounded=0;entryX=0.5;entryY=0;entryDx=0;entryDy=0;exitX=0.5;exitY=1;exitDx=0;exitDy=0;" edge="1" parent="1" source="vdaxjqXT8XuvJRHG-bB9-14" target="vdaxjqXT8XuvJRHG-bB9-10">
          <mxGeometry width="50" height="50" relative="1" as="geometry">
            <mxPoint x="350" y="220" as="sourcePoint" />
            <mxPoint x="400" y="170" as="targetPoint" />
          </mxGeometry>
        </mxCell>
        <mxCell id="vdaxjqXT8XuvJRHG-bB9-36" value="V17" style="endArrow=classic;html=1;rounded=0;exitX=0.5;exitY=1;exitDx=0;exitDy=0;entryX=0.5;entryY=0;entryDx=0;entryDy=0;" edge="1" parent="1" source="vdaxjqXT8XuvJRHG-bB9-9" target="vdaxjqXT8XuvJRHG-bB9-10">
          <mxGeometry width="50" height="50" relative="1" as="geometry">
            <mxPoint x="305" y="300" as="sourcePoint" />
            <mxPoint x="255" y="310" as="targetPoint" />
          </mxGeometry>
        </mxCell>
        <mxCell id="vdaxjqXT8XuvJRHG-bB9-37" value="V20" style="endArrow=classic;html=1;rounded=0;entryX=0.5;entryY=0;entryDx=0;entryDy=0;exitX=0.5;exitY=1;exitDx=0;exitDy=0;" edge="1" parent="1" source="vdaxjqXT8XuvJRHG-bB9-12" target="vdaxjqXT8XuvJRHG-bB9-11">
          <mxGeometry width="50" height="50" relative="1" as="geometry">
            <mxPoint x="315" y="310" as="sourcePoint" />
            <mxPoint x="275" y="330" as="targetPoint" />
          </mxGeometry>
        </mxCell>
        <mxCell id="vdaxjqXT8XuvJRHG-bB9-38" value="V19" style="endArrow=classic;html=1;rounded=0;entryX=0.5;entryY=0;entryDx=0;entryDy=0;exitX=0.5;exitY=1;exitDx=0;exitDy=0;" edge="1" parent="1" source="vdaxjqXT8XuvJRHG-bB9-13" target="vdaxjqXT8XuvJRHG-bB9-11">
          <mxGeometry width="50" height="50" relative="1" as="geometry">
            <mxPoint x="325" y="320" as="sourcePoint" />
            <mxPoint x="285" y="340" as="targetPoint" />
          </mxGeometry>
        </mxCell>
        <mxCell id="vdaxjqXT8XuvJRHG-bB9-41" value="V21" style="curved=1;endArrow=classic;html=1;rounded=0;entryX=0;entryY=0.5;entryDx=0;entryDy=0;exitX=0;exitY=0.5;exitDx=0;exitDy=0;" edge="1" parent="1" source="vdaxjqXT8XuvJRHG-bB9-9" target="vdaxjqXT8XuvJRHG-bB9-10">
          <mxGeometry width="50" height="50" relative="1" as="geometry">
            <mxPoint x="130" y="360" as="sourcePoint" />
            <mxPoint x="180" y="310" as="targetPoint" />
            <Array as="points">
              <mxPoint x="180" y="275" />
              <mxPoint x="190" y="330" />
              <mxPoint x="210" y="325" />
            </Array>
          </mxGeometry>
        </mxCell>
        <mxCell id="vdaxjqXT8XuvJRHG-bB9-42" value="V22" style="curved=1;endArrow=classic;html=1;rounded=0;entryX=1;entryY=0.5;entryDx=0;entryDy=0;exitX=1;exitY=0.5;exitDx=0;exitDy=0;" edge="1" parent="1" source="vdaxjqXT8XuvJRHG-bB9-12" target="vdaxjqXT8XuvJRHG-bB9-11">
          <mxGeometry width="50" height="50" relative="1" as="geometry">
            <mxPoint x="510" y="280" as="sourcePoint" />
            <mxPoint x="550" y="330" as="targetPoint" />
            <Array as="points">
              <mxPoint x="490" y="280" />
              <mxPoint x="520" y="310" />
              <mxPoint x="460" y="330" />
            </Array>
          </mxGeometry>
        </mxCell>
        <mxCell id="vdaxjqXT8XuvJRHG-bB9-44" value="V24" style="edgeStyle=orthogonalEdgeStyle;rounded=0;orthogonalLoop=1;jettySize=auto;html=1;entryX=1;entryY=0.5;entryDx=0;entryDy=0;curved=1;exitX=0.5;exitY=1;exitDx=0;exitDy=0;" edge="1" parent="1" source="vdaxjqXT8XuvJRHG-bB9-11" target="vdaxjqXT8XuvJRHG-bB9-2">
          <mxGeometry relative="1" as="geometry">
            <mxPoint x="265" y="350" as="sourcePoint" />
            <mxPoint x="250" y="75" as="targetPoint" />
            <Array as="points">
              <mxPoint x="430" y="340" />
              <mxPoint x="430" y="370" />
              <mxPoint x="540" y="370" />
              <mxPoint x="540" y="75" />
              <mxPoint x="370" y="75" />
              <mxPoint x="370" y="65" />
            </Array>
          </mxGeometry>
        </mxCell>
        <mxCell id="vdaxjqXT8XuvJRHG-bB9-188" value="X1" style="ellipse;whiteSpace=wrap;html=1;aspect=fixed;" vertex="1" parent="1">
          <mxGeometry x="699.97" y="70" width="30" height="30" as="geometry" />
        </mxCell>
        <mxCell id="vdaxjqXT8XuvJRHG-bB9-189" value="X2" style="ellipse;whiteSpace=wrap;html=1;aspect=fixed;" vertex="1" parent="1">
          <mxGeometry x="779.97" y="70" width="30" height="30" as="geometry" />
        </mxCell>
        <mxCell id="vdaxjqXT8XuvJRHG-bB9-190" value="X3" style="ellipse;whiteSpace=wrap;html=1;aspect=fixed;" vertex="1" parent="1">
          <mxGeometry x="739.97" y="120" width="30" height="30" as="geometry" />
        </mxCell>
        <mxCell id="vdaxjqXT8XuvJRHG-bB9-191" value="V25" style="edgeStyle=orthogonalEdgeStyle;rounded=0;orthogonalLoop=1;jettySize=auto;html=1;entryX=0.5;entryY=0;entryDx=0;entryDy=0;curved=1;" edge="1" parent="1" source="vdaxjqXT8XuvJRHG-bB9-192" target="vdaxjqXT8XuvJRHG-bB9-201">
          <mxGeometry relative="1" as="geometry" />
        </mxCell>
        <mxCell id="vdaxjqXT8XuvJRHG-bB9-192" value="X4" style="ellipse;whiteSpace=wrap;html=1;aspect=fixed;" vertex="1" parent="1">
          <mxGeometry x="829.97" y="120" width="30" height="30" as="geometry" />
        </mxCell>
        <mxCell id="vdaxjqXT8XuvJRHG-bB9-193" value="X6" style="ellipse;whiteSpace=wrap;html=1;aspect=fixed;" vertex="1" parent="1">
          <mxGeometry x="779.97" y="170" width="30" height="30" as="geometry" />
        </mxCell>
        <mxCell id="vdaxjqXT8XuvJRHG-bB9-194" value="X7" style="ellipse;whiteSpace=wrap;html=1;aspect=fixed;" vertex="1" parent="1">
          <mxGeometry x="739.97" y="220" width="30" height="30" as="geometry" />
        </mxCell>
        <mxCell id="vdaxjqXT8XuvJRHG-bB9-195" value="V26" style="edgeStyle=orthogonalEdgeStyle;rounded=0;orthogonalLoop=1;jettySize=auto;html=1;exitX=0;exitY=0.5;exitDx=0;exitDy=0;entryX=0.5;entryY=0;entryDx=0;entryDy=0;curved=1;" edge="1" parent="1" source="vdaxjqXT8XuvJRHG-bB9-196" target="vdaxjqXT8XuvJRHG-bB9-197">
          <mxGeometry relative="1" as="geometry" />
        </mxCell>
        <mxCell id="vdaxjqXT8XuvJRHG-bB9-196" value="X5" style="ellipse;whiteSpace=wrap;html=1;aspect=fixed;" vertex="1" parent="1">
          <mxGeometry x="699.97" y="170" width="30" height="30" as="geometry" />
        </mxCell>
        <mxCell id="vdaxjqXT8XuvJRHG-bB9-197" value="X12" style="ellipse;whiteSpace=wrap;html=1;aspect=fixed;" vertex="1" parent="1">
          <mxGeometry x="659.97" y="280" width="30" height="30" as="geometry" />
        </mxCell>
        <mxCell id="vdaxjqXT8XuvJRHG-bB9-198" value="V23" style="edgeStyle=orthogonalEdgeStyle;rounded=0;orthogonalLoop=1;jettySize=auto;html=1;entryX=0;entryY=0.5;entryDx=0;entryDy=0;curved=1;exitX=0.5;exitY=1;exitDx=0;exitDy=0;" edge="1" parent="1" source="vdaxjqXT8XuvJRHG-bB9-199" target="vdaxjqXT8XuvJRHG-bB9-188">
          <mxGeometry relative="1" as="geometry">
            <Array as="points">
              <mxPoint x="714.97" y="380" />
              <mxPoint x="619.97" y="380" />
              <mxPoint x="619.97" y="85" />
            </Array>
          </mxGeometry>
        </mxCell>
        <mxCell id="vdaxjqXT8XuvJRHG-bB9-199" value="X14" style="ellipse;whiteSpace=wrap;html=1;aspect=fixed;" vertex="1" parent="1">
          <mxGeometry x="699.97" y="330" width="30" height="30" as="geometry" />
        </mxCell>
        <mxCell id="vdaxjqXT8XuvJRHG-bB9-200" value="X15" style="ellipse;whiteSpace=wrap;html=1;aspect=fixed;" vertex="1" parent="1">
          <mxGeometry x="869.97" y="330" width="30" height="30" as="geometry" />
        </mxCell>
        <mxCell id="vdaxjqXT8XuvJRHG-bB9-201" value="X13" style="ellipse;whiteSpace=wrap;html=1;aspect=fixed;" vertex="1" parent="1">
          <mxGeometry x="909.97" y="280" width="30" height="30" as="geometry" />
        </mxCell>
        <mxCell id="vdaxjqXT8XuvJRHG-bB9-202" value="X11" style="ellipse;whiteSpace=wrap;html=1;aspect=fixed;" vertex="1" parent="1">
          <mxGeometry x="829.97" y="280" width="30" height="30" as="geometry" />
        </mxCell>
        <mxCell id="vdaxjqXT8XuvJRHG-bB9-203" value="X10" style="ellipse;whiteSpace=wrap;html=1;aspect=fixed;" vertex="1" parent="1">
          <mxGeometry x="739.97" y="280" width="30" height="30" as="geometry" />
        </mxCell>
        <mxCell id="vdaxjqXT8XuvJRHG-bB9-204" value="X8" style="ellipse;whiteSpace=wrap;html=1;aspect=fixed;" vertex="1" parent="1">
          <mxGeometry x="829.97" y="220" width="30" height="30" as="geometry" />
        </mxCell>
        <mxCell id="vdaxjqXT8XuvJRHG-bB9-205" value="" style="endArrow=classic;startArrow=classic;html=1;rounded=0;exitX=1;exitY=0.5;exitDx=0;exitDy=0;entryX=0;entryY=0.5;entryDx=0;entryDy=0;" edge="1" parent="1" source="vdaxjqXT8XuvJRHG-bB9-188" target="vdaxjqXT8XuvJRHG-bB9-189">
          <mxGeometry width="50" height="50" relative="1" as="geometry">
            <mxPoint x="849.97" y="240" as="sourcePoint" />
            <mxPoint x="899.97" y="190" as="targetPoint" />
          </mxGeometry>
        </mxCell>
        <mxCell id="vdaxjqXT8XuvJRHG-bB9-206" value="V1" style="edgeLabel;html=1;align=center;verticalAlign=middle;resizable=0;points=[];" vertex="1" connectable="0" parent="vdaxjqXT8XuvJRHG-bB9-205">
          <mxGeometry x="-0.0158" y="1" relative="1" as="geometry">
            <mxPoint as="offset" />
          </mxGeometry>
        </mxCell>
        <mxCell id="vdaxjqXT8XuvJRHG-bB9-207" value="V2" style="endArrow=classic;html=1;rounded=0;exitX=0.5;exitY=1;exitDx=0;exitDy=0;entryX=0.5;entryY=0;entryDx=0;entryDy=0;" edge="1" parent="1" source="vdaxjqXT8XuvJRHG-bB9-188" target="vdaxjqXT8XuvJRHG-bB9-190">
          <mxGeometry width="50" height="50" relative="1" as="geometry">
            <mxPoint x="809.97" y="240" as="sourcePoint" />
            <mxPoint x="859.97" y="190" as="targetPoint" />
          </mxGeometry>
        </mxCell>
        <mxCell id="vdaxjqXT8XuvJRHG-bB9-208" value="V3" style="endArrow=classic;html=1;rounded=0;exitX=0.5;exitY=1;exitDx=0;exitDy=0;entryX=0.5;entryY=0;entryDx=0;entryDy=0;" edge="1" parent="1" source="vdaxjqXT8XuvJRHG-bB9-189" target="vdaxjqXT8XuvJRHG-bB9-190">
          <mxGeometry width="50" height="50" relative="1" as="geometry">
            <mxPoint x="809.97" y="240" as="sourcePoint" />
            <mxPoint x="859.97" y="190" as="targetPoint" />
          </mxGeometry>
        </mxCell>
        <mxCell id="vdaxjqXT8XuvJRHG-bB9-209" value="V4" style="endArrow=classic;startArrow=classic;html=1;rounded=0;entryX=0;entryY=0.5;entryDx=0;entryDy=0;exitX=1;exitY=0.5;exitDx=0;exitDy=0;" edge="1" parent="1" source="vdaxjqXT8XuvJRHG-bB9-190" target="vdaxjqXT8XuvJRHG-bB9-192">
          <mxGeometry width="50" height="50" relative="1" as="geometry">
            <mxPoint x="809.97" y="240" as="sourcePoint" />
            <mxPoint x="859.97" y="190" as="targetPoint" />
          </mxGeometry>
        </mxCell>
        <mxCell id="vdaxjqXT8XuvJRHG-bB9-210" value="V5" style="endArrow=classic;html=1;rounded=0;exitX=0.5;exitY=1;exitDx=0;exitDy=0;entryX=0.5;entryY=0;entryDx=0;entryDy=0;" edge="1" parent="1" source="vdaxjqXT8XuvJRHG-bB9-190" target="vdaxjqXT8XuvJRHG-bB9-193">
          <mxGeometry width="50" height="50" relative="1" as="geometry">
            <mxPoint x="809.97" y="240" as="sourcePoint" />
            <mxPoint x="859.97" y="190" as="targetPoint" />
          </mxGeometry>
        </mxCell>
        <mxCell id="vdaxjqXT8XuvJRHG-bB9-211" value="V6" style="endArrow=classic;html=1;rounded=0;entryX=0.5;entryY=0;entryDx=0;entryDy=0;exitX=0.533;exitY=1;exitDx=0;exitDy=0;exitPerimeter=0;" edge="1" parent="1" source="vdaxjqXT8XuvJRHG-bB9-192" target="vdaxjqXT8XuvJRHG-bB9-193">
          <mxGeometry width="50" height="50" relative="1" as="geometry">
            <mxPoint x="809.97" y="240" as="sourcePoint" />
            <mxPoint x="859.97" y="190" as="targetPoint" />
          </mxGeometry>
        </mxCell>
        <mxCell id="vdaxjqXT8XuvJRHG-bB9-212" value="V7" style="endArrow=classic;startArrow=classic;html=1;rounded=0;exitX=1;exitY=0.5;exitDx=0;exitDy=0;entryX=0;entryY=0.5;entryDx=0;entryDy=0;" edge="1" parent="1" source="vdaxjqXT8XuvJRHG-bB9-196" target="vdaxjqXT8XuvJRHG-bB9-193">
          <mxGeometry width="50" height="50" relative="1" as="geometry">
            <mxPoint x="809.97" y="240" as="sourcePoint" />
            <mxPoint x="789.97" y="185" as="targetPoint" />
          </mxGeometry>
        </mxCell>
        <mxCell id="vdaxjqXT8XuvJRHG-bB9-213" value="V8" style="endArrow=classic;html=1;rounded=0;exitX=0.5;exitY=1;exitDx=0;exitDy=0;entryX=0.5;entryY=0;entryDx=0;entryDy=0;" edge="1" parent="1" source="vdaxjqXT8XuvJRHG-bB9-196" target="vdaxjqXT8XuvJRHG-bB9-194">
          <mxGeometry width="50" height="50" relative="1" as="geometry">
            <mxPoint x="809.97" y="240" as="sourcePoint" />
            <mxPoint x="859.97" y="190" as="targetPoint" />
          </mxGeometry>
        </mxCell>
        <mxCell id="vdaxjqXT8XuvJRHG-bB9-214" value="V9" style="endArrow=classic;html=1;rounded=0;exitX=0.5;exitY=1;exitDx=0;exitDy=0;entryX=0.5;entryY=0;entryDx=0;entryDy=0;" edge="1" parent="1" source="vdaxjqXT8XuvJRHG-bB9-193" target="vdaxjqXT8XuvJRHG-bB9-194">
          <mxGeometry width="50" height="50" relative="1" as="geometry">
            <mxPoint x="714.97" y="210" as="sourcePoint" />
            <mxPoint x="764.97" y="230" as="targetPoint" />
          </mxGeometry>
        </mxCell>
        <mxCell id="vdaxjqXT8XuvJRHG-bB9-215" value="V10" style="endArrow=classic;startArrow=classic;html=1;rounded=0;exitX=1;exitY=0.5;exitDx=0;exitDy=0;entryX=0;entryY=0.5;entryDx=0;entryDy=0;" edge="1" parent="1" source="vdaxjqXT8XuvJRHG-bB9-194" target="vdaxjqXT8XuvJRHG-bB9-204">
          <mxGeometry width="50" height="50" relative="1" as="geometry">
            <mxPoint x="809.97" y="240" as="sourcePoint" />
            <mxPoint x="859.97" y="190" as="targetPoint" />
          </mxGeometry>
        </mxCell>
        <mxCell id="vdaxjqXT8XuvJRHG-bB9-216" value="V16" style="endArrow=classic;startArrow=classic;html=1;rounded=0;exitX=1;exitY=0.5;exitDx=0;exitDy=0;entryX=0;entryY=0.5;entryDx=0;entryDy=0;" edge="1" parent="1" source="vdaxjqXT8XuvJRHG-bB9-202" target="vdaxjqXT8XuvJRHG-bB9-201">
          <mxGeometry width="50" height="50" relative="1" as="geometry">
            <mxPoint x="809.97" y="240" as="sourcePoint" />
            <mxPoint x="999.97" y="290" as="targetPoint" />
          </mxGeometry>
        </mxCell>
        <mxCell id="vdaxjqXT8XuvJRHG-bB9-217" value="V14" style="endArrow=classic;html=1;rounded=0;entryX=0.5;entryY=0;entryDx=0;entryDy=0;exitX=0.5;exitY=1;exitDx=0;exitDy=0;" edge="1" parent="1" source="vdaxjqXT8XuvJRHG-bB9-194" target="vdaxjqXT8XuvJRHG-bB9-202">
          <mxGeometry x="0.5" y="-8" width="50" height="50" relative="1" as="geometry">
            <mxPoint x="809.97" y="240" as="sourcePoint" />
            <mxPoint x="859.97" y="190" as="targetPoint" />
            <mxPoint as="offset" />
          </mxGeometry>
        </mxCell>
        <mxCell id="vdaxjqXT8XuvJRHG-bB9-218" value="V13" style="endArrow=classic;html=1;rounded=0;entryX=0.5;entryY=0;entryDx=0;entryDy=0;exitX=0.5;exitY=1;exitDx=0;exitDy=0;" edge="1" parent="1" source="vdaxjqXT8XuvJRHG-bB9-204" target="vdaxjqXT8XuvJRHG-bB9-203">
          <mxGeometry x="0.5" y="8" width="50" height="50" relative="1" as="geometry">
            <mxPoint x="764.97" y="260" as="sourcePoint" />
            <mxPoint x="854.97" y="290" as="targetPoint" />
            <mxPoint as="offset" />
          </mxGeometry>
        </mxCell>
        <mxCell id="vdaxjqXT8XuvJRHG-bB9-219" value="V11" style="endArrow=classic;html=1;rounded=0;entryX=0.5;entryY=0;entryDx=0;entryDy=0;exitX=0.5;exitY=1;exitDx=0;exitDy=0;" edge="1" parent="1" source="vdaxjqXT8XuvJRHG-bB9-194" target="vdaxjqXT8XuvJRHG-bB9-203">
          <mxGeometry x="-0.3333" y="-15" width="50" height="50" relative="1" as="geometry">
            <mxPoint x="809.97" y="240" as="sourcePoint" />
            <mxPoint x="859.97" y="190" as="targetPoint" />
            <mxPoint as="offset" />
          </mxGeometry>
        </mxCell>
        <mxCell id="vdaxjqXT8XuvJRHG-bB9-220" value="V12" style="endArrow=classic;html=1;rounded=0;entryX=0.5;entryY=0;entryDx=0;entryDy=0;exitX=0.5;exitY=1;exitDx=0;exitDy=0;" edge="1" parent="1" source="vdaxjqXT8XuvJRHG-bB9-204" target="vdaxjqXT8XuvJRHG-bB9-202">
          <mxGeometry x="-0.3103" y="15" width="50" height="50" relative="1" as="geometry">
            <mxPoint x="774.97" y="270" as="sourcePoint" />
            <mxPoint x="864.97" y="300" as="targetPoint" />
            <mxPoint as="offset" />
          </mxGeometry>
        </mxCell>
        <mxCell id="vdaxjqXT8XuvJRHG-bB9-221" value="V15" style="endArrow=classic;startArrow=classic;html=1;rounded=0;exitX=1;exitY=0.5;exitDx=0;exitDy=0;entryX=0;entryY=0.5;entryDx=0;entryDy=0;" edge="1" parent="1" source="vdaxjqXT8XuvJRHG-bB9-197" target="vdaxjqXT8XuvJRHG-bB9-203">
          <mxGeometry width="50" height="50" relative="1" as="geometry">
            <mxPoint x="809.97" y="240" as="sourcePoint" />
            <mxPoint x="859.97" y="190" as="targetPoint" />
          </mxGeometry>
        </mxCell>
        <mxCell id="vdaxjqXT8XuvJRHG-bB9-222" value="V18" style="endArrow=classic;html=1;rounded=0;entryX=0.5;entryY=0;entryDx=0;entryDy=0;exitX=0.5;exitY=1;exitDx=0;exitDy=0;" edge="1" parent="1" source="vdaxjqXT8XuvJRHG-bB9-203" target="vdaxjqXT8XuvJRHG-bB9-199">
          <mxGeometry width="50" height="50" relative="1" as="geometry">
            <mxPoint x="809.97" y="240" as="sourcePoint" />
            <mxPoint x="859.97" y="190" as="targetPoint" />
          </mxGeometry>
        </mxCell>
        <mxCell id="vdaxjqXT8XuvJRHG-bB9-223" value="V17" style="endArrow=classic;html=1;rounded=0;exitX=0.5;exitY=1;exitDx=0;exitDy=0;entryX=0.5;entryY=0;entryDx=0;entryDy=0;" edge="1" parent="1" source="vdaxjqXT8XuvJRHG-bB9-197" target="vdaxjqXT8XuvJRHG-bB9-199">
          <mxGeometry width="50" height="50" relative="1" as="geometry">
            <mxPoint x="764.97" y="320" as="sourcePoint" />
            <mxPoint x="714.97" y="330" as="targetPoint" />
          </mxGeometry>
        </mxCell>
        <mxCell id="vdaxjqXT8XuvJRHG-bB9-224" value="V20" style="endArrow=classic;html=1;rounded=0;entryX=0.5;entryY=0;entryDx=0;entryDy=0;exitX=0.5;exitY=1;exitDx=0;exitDy=0;" edge="1" parent="1" source="vdaxjqXT8XuvJRHG-bB9-201" target="vdaxjqXT8XuvJRHG-bB9-200">
          <mxGeometry width="50" height="50" relative="1" as="geometry">
            <mxPoint x="774.97" y="330" as="sourcePoint" />
            <mxPoint x="734.97" y="350" as="targetPoint" />
          </mxGeometry>
        </mxCell>
        <mxCell id="vdaxjqXT8XuvJRHG-bB9-225" value="V19" style="endArrow=classic;html=1;rounded=0;entryX=0.5;entryY=0;entryDx=0;entryDy=0;exitX=0.5;exitY=1;exitDx=0;exitDy=0;" edge="1" parent="1" source="vdaxjqXT8XuvJRHG-bB9-202" target="vdaxjqXT8XuvJRHG-bB9-200">
          <mxGeometry width="50" height="50" relative="1" as="geometry">
            <mxPoint x="784.97" y="340" as="sourcePoint" />
            <mxPoint x="744.97" y="360" as="targetPoint" />
          </mxGeometry>
        </mxCell>
        <mxCell id="vdaxjqXT8XuvJRHG-bB9-226" value="V21" style="curved=1;endArrow=classic;html=1;rounded=0;entryX=0;entryY=0.5;entryDx=0;entryDy=0;exitX=0;exitY=0.5;exitDx=0;exitDy=0;" edge="1" parent="1" source="vdaxjqXT8XuvJRHG-bB9-197" target="vdaxjqXT8XuvJRHG-bB9-199">
          <mxGeometry width="50" height="50" relative="1" as="geometry">
            <mxPoint x="589.97" y="380" as="sourcePoint" />
            <mxPoint x="639.97" y="330" as="targetPoint" />
            <Array as="points">
              <mxPoint x="639.97" y="295" />
              <mxPoint x="649.97" y="350" />
              <mxPoint x="669.97" y="345" />
            </Array>
          </mxGeometry>
        </mxCell>
        <mxCell id="vdaxjqXT8XuvJRHG-bB9-227" value="V22" style="curved=1;endArrow=classic;html=1;rounded=0;entryX=1;entryY=0.5;entryDx=0;entryDy=0;exitX=1;exitY=0.5;exitDx=0;exitDy=0;" edge="1" parent="1" source="vdaxjqXT8XuvJRHG-bB9-201" target="vdaxjqXT8XuvJRHG-bB9-200">
          <mxGeometry width="50" height="50" relative="1" as="geometry">
            <mxPoint x="969.97" y="300" as="sourcePoint" />
            <mxPoint x="1009.97" y="350" as="targetPoint" />
            <Array as="points">
              <mxPoint x="949.97" y="300" />
              <mxPoint x="979.97" y="330" />
              <mxPoint x="919.97" y="350" />
            </Array>
          </mxGeometry>
        </mxCell>
        <mxCell id="vdaxjqXT8XuvJRHG-bB9-228" value="V24" style="edgeStyle=orthogonalEdgeStyle;rounded=0;orthogonalLoop=1;jettySize=auto;html=1;entryX=1;entryY=0.5;entryDx=0;entryDy=0;curved=1;exitX=0.5;exitY=1;exitDx=0;exitDy=0;" edge="1" parent="1" source="vdaxjqXT8XuvJRHG-bB9-200" target="vdaxjqXT8XuvJRHG-bB9-189">
          <mxGeometry relative="1" as="geometry">
            <mxPoint x="724.97" y="370" as="sourcePoint" />
            <mxPoint x="709.97" y="95" as="targetPoint" />
            <Array as="points">
              <mxPoint x="890" y="360" />
              <mxPoint x="890" y="390" />
              <mxPoint x="1000" y="390" />
              <mxPoint x="1000" y="95" />
              <mxPoint x="840" y="95" />
              <mxPoint x="840" y="85" />
            </Array>
          </mxGeometry>
        </mxCell>
        <mxCell id="vdaxjqXT8XuvJRHG-bB9-229" value="1" style="text;html=1;align=center;verticalAlign=middle;whiteSpace=wrap;rounded=0;fontStyle=1" vertex="1" parent="1">
          <mxGeometry x="724.97" y="60" width="60" height="30" as="geometry" />
        </mxCell>
        <mxCell id="vdaxjqXT8XuvJRHG-bB9-230" value="17" style="text;html=1;align=center;verticalAlign=middle;whiteSpace=wrap;rounded=0;fontStyle=1" vertex="1" parent="1">
          <mxGeometry x="690" y="100" width="60" height="30" as="geometry" />
        </mxCell>
        <mxCell id="vdaxjqXT8XuvJRHG-bB9-231" value="18" style="text;html=1;align=center;verticalAlign=middle;whiteSpace=wrap;rounded=0;fontStyle=1" vertex="1" parent="1">
          <mxGeometry x="754.97" y="100" width="60" height="30" as="geometry" />
        </mxCell>
        <mxCell id="vdaxjqXT8XuvJRHG-bB9-232" value="2" style="text;html=1;align=center;verticalAlign=middle;whiteSpace=wrap;rounded=0;fontStyle=1" vertex="1" parent="1">
          <mxGeometry x="770" y="110" width="60" height="30" as="geometry" />
        </mxCell>
        <mxCell id="vdaxjqXT8XuvJRHG-bB9-233" value="13" style="text;html=1;align=center;verticalAlign=middle;whiteSpace=wrap;rounded=0;fontStyle=1" vertex="1" parent="1">
          <mxGeometry x="800" y="150" width="60" height="30" as="geometry" />
        </mxCell>
        <mxCell id="vdaxjqXT8XuvJRHG-bB9-234" value="15" style="text;html=1;align=center;verticalAlign=middle;whiteSpace=wrap;rounded=0;fontStyle=1" vertex="1" parent="1">
          <mxGeometry x="730" y="150" width="60" height="30" as="geometry" />
        </mxCell>
        <mxCell id="vdaxjqXT8XuvJRHG-bB9-235" value="70" style="text;html=1;align=center;verticalAlign=middle;whiteSpace=wrap;rounded=0;fontStyle=1" vertex="1" parent="1">
          <mxGeometry x="980" y="220" width="60" height="30" as="geometry" />
        </mxCell>
        <mxCell id="vdaxjqXT8XuvJRHG-bB9-236" value="60" style="text;html=1;align=center;verticalAlign=middle;whiteSpace=wrap;rounded=0;fontStyle=1" vertex="1" parent="1">
          <mxGeometry x="580" y="210" width="60" height="30" as="geometry" />
        </mxCell>
        <mxCell id="vdaxjqXT8XuvJRHG-bB9-237" value="30" style="text;html=1;align=center;verticalAlign=middle;whiteSpace=wrap;rounded=0;fontStyle=1" vertex="1" parent="1">
          <mxGeometry x="915" y="190" width="25" height="20" as="geometry" />
        </mxCell>
        <mxCell id="vdaxjqXT8XuvJRHG-bB9-238" value="2" style="text;html=1;align=center;verticalAlign=middle;whiteSpace=wrap;rounded=0;fontStyle=1" vertex="1" parent="1">
          <mxGeometry x="790" y="215" width="25" height="20" as="geometry" />
        </mxCell>
        <mxCell id="vdaxjqXT8XuvJRHG-bB9-239" value="1" style="text;html=1;align=center;verticalAlign=middle;whiteSpace=wrap;rounded=0;fontStyle=1" vertex="1" parent="1">
          <mxGeometry x="730" y="170" width="25" height="20" as="geometry" />
        </mxCell>
        <mxCell id="vdaxjqXT8XuvJRHG-bB9-240" value="15" style="text;html=1;align=center;verticalAlign=middle;whiteSpace=wrap;rounded=0;fontStyle=1" vertex="1" parent="1">
          <mxGeometry x="707.5" y="200" width="25" height="20" as="geometry" />
        </mxCell>
        <mxCell id="vdaxjqXT8XuvJRHG-bB9-241" value="16" style="text;html=1;align=center;verticalAlign=middle;whiteSpace=wrap;rounded=0;fontStyle=1" vertex="1" parent="1">
          <mxGeometry x="775" y="200" width="25" height="20" as="geometry" />
        </mxCell>
        <mxCell id="vdaxjqXT8XuvJRHG-bB9-242" value="27" style="text;html=1;align=center;verticalAlign=middle;whiteSpace=wrap;rounded=0;fontStyle=1" vertex="1" parent="1">
          <mxGeometry x="665" y="200" width="25" height="20" as="geometry" />
        </mxCell>
        <mxCell id="vdaxjqXT8XuvJRHG-bB9-243" value="20" style="text;html=1;align=center;verticalAlign=middle;whiteSpace=wrap;rounded=0;fontStyle=1" vertex="1" parent="1">
          <mxGeometry x="809.97" y="280" width="25" height="20" as="geometry" />
        </mxCell>
        <mxCell id="vdaxjqXT8XuvJRHG-bB9-244" value="18" style="text;html=1;align=center;verticalAlign=middle;whiteSpace=wrap;rounded=0;fontStyle=1" vertex="1" parent="1">
          <mxGeometry x="765" y="280" width="25" height="20" as="geometry" />
        </mxCell>
        <mxCell id="vdaxjqXT8XuvJRHG-bB9-245" value="18" style="text;html=1;align=center;verticalAlign=middle;whiteSpace=wrap;rounded=0;fontStyle=1" vertex="1" parent="1">
          <mxGeometry x="844.97" y="260" width="25" height="20" as="geometry" />
        </mxCell>
        <mxCell id="vdaxjqXT8XuvJRHG-bB9-246" value="20" style="text;html=1;align=center;verticalAlign=middle;whiteSpace=wrap;rounded=0;fontStyle=1" vertex="1" parent="1">
          <mxGeometry x="732.5" y="260" width="25" height="20" as="geometry" />
        </mxCell>
        <mxCell id="vdaxjqXT8XuvJRHG-bB9-247" value="15" style="text;html=1;align=center;verticalAlign=middle;whiteSpace=wrap;rounded=0;fontStyle=1" vertex="1" parent="1">
          <mxGeometry x="939.97" y="340" width="25" height="20" as="geometry" />
        </mxCell>
        <mxCell id="vdaxjqXT8XuvJRHG-bB9-248" value="20" style="text;html=1;align=center;verticalAlign=middle;whiteSpace=wrap;rounded=0;fontStyle=1" vertex="1" parent="1">
          <mxGeometry x="909.97" y="310" width="25" height="20" as="geometry" />
        </mxCell>
        <mxCell id="vdaxjqXT8XuvJRHG-bB9-249" value="17" style="text;html=1;align=center;verticalAlign=middle;whiteSpace=wrap;rounded=0;fontStyle=1" vertex="1" parent="1">
          <mxGeometry x="844.97" y="320" width="25" height="20" as="geometry" />
        </mxCell>
        <mxCell id="vdaxjqXT8XuvJRHG-bB9-250" value="3" style="text;html=1;align=center;verticalAlign=middle;whiteSpace=wrap;rounded=0;fontStyle=1" vertex="1" parent="1">
          <mxGeometry x="885" y="280" width="25" height="20" as="geometry" />
        </mxCell>
        <mxCell id="vdaxjqXT8XuvJRHG-bB9-251" value="3" style="text;html=1;align=center;verticalAlign=middle;whiteSpace=wrap;rounded=0;fontStyle=1" vertex="1" parent="1">
          <mxGeometry x="689.97" y="280" width="25" height="20" as="geometry" />
        </mxCell>
        <mxCell id="vdaxjqXT8XuvJRHG-bB9-252" value="15" style="text;html=1;align=center;verticalAlign=middle;whiteSpace=wrap;rounded=0;fontStyle=1" vertex="1" parent="1">
          <mxGeometry x="659.97" y="330" width="25" height="20" as="geometry" />
        </mxCell>
        <mxCell id="vdaxjqXT8XuvJRHG-bB9-253" value="16" style="text;html=1;align=center;verticalAlign=middle;whiteSpace=wrap;rounded=0;fontStyle=1" vertex="1" parent="1">
          <mxGeometry x="724.97" y="320" width="25" height="20" as="geometry" />
        </mxCell>
        <mxCell id="vdaxjqXT8XuvJRHG-bB9-254" value="13" style="text;html=1;align=center;verticalAlign=middle;whiteSpace=wrap;rounded=0;fontStyle=1" vertex="1" parent="1">
          <mxGeometry x="665" y="310" width="25" height="20" as="geometry" />
        </mxCell>
        <mxCell id="vdaxjqXT8XuvJRHG-bB9-461" value="X1" style="ellipse;whiteSpace=wrap;html=1;aspect=fixed;" vertex="1" parent="1">
          <mxGeometry x="239.97000000000003" y="510" width="30" height="30" as="geometry" />
        </mxCell>
        <mxCell id="vdaxjqXT8XuvJRHG-bB9-462" value="X2" style="ellipse;whiteSpace=wrap;html=1;aspect=fixed;" vertex="1" parent="1">
          <mxGeometry x="319.97" y="510" width="30" height="30" as="geometry" />
        </mxCell>
        <mxCell id="vdaxjqXT8XuvJRHG-bB9-463" value="X3" style="ellipse;whiteSpace=wrap;html=1;aspect=fixed;" vertex="1" parent="1">
          <mxGeometry x="279.97" y="560" width="30" height="30" as="geometry" />
        </mxCell>
        <mxCell id="vdaxjqXT8XuvJRHG-bB9-464" value="V25" style="edgeStyle=orthogonalEdgeStyle;rounded=0;orthogonalLoop=1;jettySize=auto;html=1;entryX=0.5;entryY=0;entryDx=0;entryDy=0;curved=1;" edge="1" parent="1" source="vdaxjqXT8XuvJRHG-bB9-465" target="vdaxjqXT8XuvJRHG-bB9-474">
          <mxGeometry relative="1" as="geometry" />
        </mxCell>
        <mxCell id="vdaxjqXT8XuvJRHG-bB9-465" value="X4" style="ellipse;whiteSpace=wrap;html=1;aspect=fixed;" vertex="1" parent="1">
          <mxGeometry x="369.97" y="560" width="30" height="30" as="geometry" />
        </mxCell>
        <mxCell id="vdaxjqXT8XuvJRHG-bB9-466" value="X6" style="ellipse;whiteSpace=wrap;html=1;aspect=fixed;" vertex="1" parent="1">
          <mxGeometry x="319.97" y="610" width="30" height="30" as="geometry" />
        </mxCell>
        <mxCell id="vdaxjqXT8XuvJRHG-bB9-467" value="X7" style="ellipse;whiteSpace=wrap;html=1;aspect=fixed;fillColor=#FF9933;" vertex="1" parent="1">
          <mxGeometry x="279.97" y="660" width="30" height="30" as="geometry" />
        </mxCell>
        <mxCell id="vdaxjqXT8XuvJRHG-bB9-468" value="V26" style="edgeStyle=orthogonalEdgeStyle;rounded=0;orthogonalLoop=1;jettySize=auto;html=1;exitX=0;exitY=0.5;exitDx=0;exitDy=0;entryX=0.5;entryY=0;entryDx=0;entryDy=0;curved=1;" edge="1" parent="1" source="vdaxjqXT8XuvJRHG-bB9-469" target="vdaxjqXT8XuvJRHG-bB9-470">
          <mxGeometry relative="1" as="geometry" />
        </mxCell>
        <mxCell id="vdaxjqXT8XuvJRHG-bB9-469" value="X5" style="ellipse;whiteSpace=wrap;html=1;aspect=fixed;" vertex="1" parent="1">
          <mxGeometry x="239.97000000000003" y="610" width="30" height="30" as="geometry" />
        </mxCell>
        <mxCell id="vdaxjqXT8XuvJRHG-bB9-470" value="X12" style="ellipse;whiteSpace=wrap;html=1;aspect=fixed;" vertex="1" parent="1">
          <mxGeometry x="199.97000000000003" y="720" width="30" height="30" as="geometry" />
        </mxCell>
        <mxCell id="vdaxjqXT8XuvJRHG-bB9-471" value="V23" style="edgeStyle=orthogonalEdgeStyle;rounded=0;orthogonalLoop=1;jettySize=auto;html=1;entryX=0;entryY=0.5;entryDx=0;entryDy=0;curved=1;exitX=0.5;exitY=1;exitDx=0;exitDy=0;" edge="1" parent="1" source="vdaxjqXT8XuvJRHG-bB9-472" target="vdaxjqXT8XuvJRHG-bB9-461">
          <mxGeometry relative="1" as="geometry">
            <Array as="points">
              <mxPoint x="254.97000000000003" y="820" />
              <mxPoint x="159.97000000000003" y="820" />
              <mxPoint x="159.97000000000003" y="525" />
            </Array>
          </mxGeometry>
        </mxCell>
        <mxCell id="vdaxjqXT8XuvJRHG-bB9-472" value="X14" style="ellipse;whiteSpace=wrap;html=1;aspect=fixed;" vertex="1" parent="1">
          <mxGeometry x="239.97000000000003" y="770" width="30" height="30" as="geometry" />
        </mxCell>
        <mxCell id="vdaxjqXT8XuvJRHG-bB9-473" value="X15" style="ellipse;whiteSpace=wrap;html=1;aspect=fixed;" vertex="1" parent="1">
          <mxGeometry x="409.97" y="770" width="30" height="30" as="geometry" />
        </mxCell>
        <mxCell id="vdaxjqXT8XuvJRHG-bB9-474" value="X13" style="ellipse;whiteSpace=wrap;html=1;aspect=fixed;" vertex="1" parent="1">
          <mxGeometry x="449.97" y="720" width="30" height="30" as="geometry" />
        </mxCell>
        <mxCell id="vdaxjqXT8XuvJRHG-bB9-475" value="X11" style="ellipse;whiteSpace=wrap;html=1;aspect=fixed;fillColor=#F7FF0F;" vertex="1" parent="1">
          <mxGeometry x="369.97" y="720" width="30" height="30" as="geometry" />
        </mxCell>
        <mxCell id="vdaxjqXT8XuvJRHG-bB9-476" value="X10" style="ellipse;whiteSpace=wrap;html=1;aspect=fixed;fillColor=#F7FF0F;" vertex="1" parent="1">
          <mxGeometry x="279.97" y="720" width="30" height="30" as="geometry" />
        </mxCell>
        <mxCell id="vdaxjqXT8XuvJRHG-bB9-477" value="X8" style="ellipse;whiteSpace=wrap;html=1;aspect=fixed;fillColor=#F7FF0F;" vertex="1" parent="1">
          <mxGeometry x="369.97" y="660" width="30" height="30" as="geometry" />
        </mxCell>
        <mxCell id="vdaxjqXT8XuvJRHG-bB9-478" value="" style="endArrow=classic;startArrow=classic;html=1;rounded=0;exitX=1;exitY=0.5;exitDx=0;exitDy=0;entryX=0;entryY=0.5;entryDx=0;entryDy=0;" edge="1" parent="1" source="vdaxjqXT8XuvJRHG-bB9-461" target="vdaxjqXT8XuvJRHG-bB9-462">
          <mxGeometry width="50" height="50" relative="1" as="geometry">
            <mxPoint x="389.97" y="680" as="sourcePoint" />
            <mxPoint x="439.97" y="630" as="targetPoint" />
          </mxGeometry>
        </mxCell>
        <mxCell id="vdaxjqXT8XuvJRHG-bB9-479" value="V1" style="edgeLabel;html=1;align=center;verticalAlign=middle;resizable=0;points=[];" vertex="1" connectable="0" parent="vdaxjqXT8XuvJRHG-bB9-478">
          <mxGeometry x="-0.0158" y="1" relative="1" as="geometry">
            <mxPoint as="offset" />
          </mxGeometry>
        </mxCell>
        <mxCell id="vdaxjqXT8XuvJRHG-bB9-480" value="V2" style="endArrow=classic;html=1;rounded=0;exitX=0.5;exitY=1;exitDx=0;exitDy=0;entryX=0.5;entryY=0;entryDx=0;entryDy=0;" edge="1" parent="1" source="vdaxjqXT8XuvJRHG-bB9-461" target="vdaxjqXT8XuvJRHG-bB9-463">
          <mxGeometry width="50" height="50" relative="1" as="geometry">
            <mxPoint x="349.97" y="680" as="sourcePoint" />
            <mxPoint x="399.97" y="630" as="targetPoint" />
          </mxGeometry>
        </mxCell>
        <mxCell id="vdaxjqXT8XuvJRHG-bB9-481" value="V3" style="endArrow=classic;html=1;rounded=0;exitX=0.5;exitY=1;exitDx=0;exitDy=0;entryX=0.5;entryY=0;entryDx=0;entryDy=0;" edge="1" parent="1" source="vdaxjqXT8XuvJRHG-bB9-462" target="vdaxjqXT8XuvJRHG-bB9-463">
          <mxGeometry width="50" height="50" relative="1" as="geometry">
            <mxPoint x="349.97" y="680" as="sourcePoint" />
            <mxPoint x="399.97" y="630" as="targetPoint" />
          </mxGeometry>
        </mxCell>
        <mxCell id="vdaxjqXT8XuvJRHG-bB9-482" value="V4" style="endArrow=classic;startArrow=classic;html=1;rounded=0;entryX=0;entryY=0.5;entryDx=0;entryDy=0;exitX=1;exitY=0.5;exitDx=0;exitDy=0;" edge="1" parent="1" source="vdaxjqXT8XuvJRHG-bB9-463" target="vdaxjqXT8XuvJRHG-bB9-465">
          <mxGeometry width="50" height="50" relative="1" as="geometry">
            <mxPoint x="349.97" y="680" as="sourcePoint" />
            <mxPoint x="399.97" y="630" as="targetPoint" />
          </mxGeometry>
        </mxCell>
        <mxCell id="vdaxjqXT8XuvJRHG-bB9-483" value="V5" style="endArrow=classic;html=1;rounded=0;exitX=0.5;exitY=1;exitDx=0;exitDy=0;entryX=0.5;entryY=0;entryDx=0;entryDy=0;" edge="1" parent="1" source="vdaxjqXT8XuvJRHG-bB9-463" target="vdaxjqXT8XuvJRHG-bB9-466">
          <mxGeometry width="50" height="50" relative="1" as="geometry">
            <mxPoint x="349.97" y="680" as="sourcePoint" />
            <mxPoint x="399.97" y="630" as="targetPoint" />
          </mxGeometry>
        </mxCell>
        <mxCell id="vdaxjqXT8XuvJRHG-bB9-484" value="V6" style="endArrow=classic;html=1;rounded=0;entryX=0.5;entryY=0;entryDx=0;entryDy=0;exitX=0.533;exitY=1;exitDx=0;exitDy=0;exitPerimeter=0;" edge="1" parent="1" source="vdaxjqXT8XuvJRHG-bB9-465" target="vdaxjqXT8XuvJRHG-bB9-466">
          <mxGeometry width="50" height="50" relative="1" as="geometry">
            <mxPoint x="349.97" y="680" as="sourcePoint" />
            <mxPoint x="399.97" y="630" as="targetPoint" />
          </mxGeometry>
        </mxCell>
        <mxCell id="vdaxjqXT8XuvJRHG-bB9-485" value="V7" style="endArrow=classic;startArrow=classic;html=1;rounded=0;exitX=1;exitY=0.5;exitDx=0;exitDy=0;entryX=0;entryY=0.5;entryDx=0;entryDy=0;" edge="1" parent="1" source="vdaxjqXT8XuvJRHG-bB9-469" target="vdaxjqXT8XuvJRHG-bB9-466">
          <mxGeometry width="50" height="50" relative="1" as="geometry">
            <mxPoint x="349.97" y="680" as="sourcePoint" />
            <mxPoint x="329.97" y="625" as="targetPoint" />
          </mxGeometry>
        </mxCell>
        <mxCell id="vdaxjqXT8XuvJRHG-bB9-486" value="V8" style="endArrow=classic;html=1;rounded=0;exitX=0.5;exitY=1;exitDx=0;exitDy=0;entryX=0.5;entryY=0;entryDx=0;entryDy=0;" edge="1" parent="1" source="vdaxjqXT8XuvJRHG-bB9-469" target="vdaxjqXT8XuvJRHG-bB9-467">
          <mxGeometry width="50" height="50" relative="1" as="geometry">
            <mxPoint x="349.97" y="680" as="sourcePoint" />
            <mxPoint x="399.97" y="630" as="targetPoint" />
          </mxGeometry>
        </mxCell>
        <mxCell id="vdaxjqXT8XuvJRHG-bB9-487" value="V9" style="endArrow=classic;html=1;rounded=0;exitX=0.5;exitY=1;exitDx=0;exitDy=0;entryX=0.5;entryY=0;entryDx=0;entryDy=0;" edge="1" parent="1" source="vdaxjqXT8XuvJRHG-bB9-466" target="vdaxjqXT8XuvJRHG-bB9-467">
          <mxGeometry width="50" height="50" relative="1" as="geometry">
            <mxPoint x="254.97000000000003" y="650" as="sourcePoint" />
            <mxPoint x="304.97" y="670" as="targetPoint" />
          </mxGeometry>
        </mxCell>
        <mxCell id="vdaxjqXT8XuvJRHG-bB9-488" value="V10" style="endArrow=classic;startArrow=classic;html=1;rounded=0;exitX=1;exitY=0.5;exitDx=0;exitDy=0;entryX=0;entryY=0.5;entryDx=0;entryDy=0;" edge="1" parent="1" source="vdaxjqXT8XuvJRHG-bB9-467" target="vdaxjqXT8XuvJRHG-bB9-477">
          <mxGeometry width="50" height="50" relative="1" as="geometry">
            <mxPoint x="349.97" y="680" as="sourcePoint" />
            <mxPoint x="399.97" y="630" as="targetPoint" />
          </mxGeometry>
        </mxCell>
        <mxCell id="vdaxjqXT8XuvJRHG-bB9-489" value="V16" style="endArrow=classic;startArrow=classic;html=1;rounded=0;exitX=1;exitY=0.5;exitDx=0;exitDy=0;entryX=0;entryY=0.5;entryDx=0;entryDy=0;" edge="1" parent="1" source="vdaxjqXT8XuvJRHG-bB9-475" target="vdaxjqXT8XuvJRHG-bB9-474">
          <mxGeometry width="50" height="50" relative="1" as="geometry">
            <mxPoint x="349.97" y="680" as="sourcePoint" />
            <mxPoint x="539.97" y="730" as="targetPoint" />
          </mxGeometry>
        </mxCell>
        <mxCell id="vdaxjqXT8XuvJRHG-bB9-490" value="V14" style="endArrow=classic;html=1;rounded=0;entryX=0.5;entryY=0;entryDx=0;entryDy=0;exitX=0.5;exitY=1;exitDx=0;exitDy=0;" edge="1" parent="1" source="vdaxjqXT8XuvJRHG-bB9-467" target="vdaxjqXT8XuvJRHG-bB9-475">
          <mxGeometry x="0.5" y="-8" width="50" height="50" relative="1" as="geometry">
            <mxPoint x="349.97" y="680" as="sourcePoint" />
            <mxPoint x="399.97" y="630" as="targetPoint" />
            <mxPoint as="offset" />
          </mxGeometry>
        </mxCell>
        <mxCell id="vdaxjqXT8XuvJRHG-bB9-491" value="V13" style="endArrow=classic;html=1;rounded=0;entryX=0.5;entryY=0;entryDx=0;entryDy=0;exitX=0.5;exitY=1;exitDx=0;exitDy=0;" edge="1" parent="1" source="vdaxjqXT8XuvJRHG-bB9-477" target="vdaxjqXT8XuvJRHG-bB9-476">
          <mxGeometry x="0.5" y="8" width="50" height="50" relative="1" as="geometry">
            <mxPoint x="304.97" y="700" as="sourcePoint" />
            <mxPoint x="394.97" y="730" as="targetPoint" />
            <mxPoint as="offset" />
          </mxGeometry>
        </mxCell>
        <mxCell id="vdaxjqXT8XuvJRHG-bB9-492" value="V11" style="endArrow=classic;html=1;rounded=0;entryX=0.5;entryY=0;entryDx=0;entryDy=0;exitX=0.5;exitY=1;exitDx=0;exitDy=0;" edge="1" parent="1" source="vdaxjqXT8XuvJRHG-bB9-467" target="vdaxjqXT8XuvJRHG-bB9-476">
          <mxGeometry x="-0.3333" y="-15" width="50" height="50" relative="1" as="geometry">
            <mxPoint x="349.97" y="680" as="sourcePoint" />
            <mxPoint x="399.97" y="630" as="targetPoint" />
            <mxPoint as="offset" />
          </mxGeometry>
        </mxCell>
        <mxCell id="vdaxjqXT8XuvJRHG-bB9-493" value="V12" style="endArrow=classic;html=1;rounded=0;entryX=0.5;entryY=0;entryDx=0;entryDy=0;exitX=0.5;exitY=1;exitDx=0;exitDy=0;" edge="1" parent="1" source="vdaxjqXT8XuvJRHG-bB9-477" target="vdaxjqXT8XuvJRHG-bB9-475">
          <mxGeometry x="-0.3103" y="15" width="50" height="50" relative="1" as="geometry">
            <mxPoint x="314.97" y="710" as="sourcePoint" />
            <mxPoint x="404.97" y="740" as="targetPoint" />
            <mxPoint as="offset" />
          </mxGeometry>
        </mxCell>
        <mxCell id="vdaxjqXT8XuvJRHG-bB9-494" value="V15" style="endArrow=classic;startArrow=classic;html=1;rounded=0;exitX=1;exitY=0.5;exitDx=0;exitDy=0;entryX=0;entryY=0.5;entryDx=0;entryDy=0;" edge="1" parent="1" source="vdaxjqXT8XuvJRHG-bB9-470" target="vdaxjqXT8XuvJRHG-bB9-476">
          <mxGeometry width="50" height="50" relative="1" as="geometry">
            <mxPoint x="349.97" y="680" as="sourcePoint" />
            <mxPoint x="399.97" y="630" as="targetPoint" />
          </mxGeometry>
        </mxCell>
        <mxCell id="vdaxjqXT8XuvJRHG-bB9-495" value="V18" style="endArrow=classic;html=1;rounded=0;entryX=0.5;entryY=0;entryDx=0;entryDy=0;exitX=0.5;exitY=1;exitDx=0;exitDy=0;" edge="1" parent="1" source="vdaxjqXT8XuvJRHG-bB9-476" target="vdaxjqXT8XuvJRHG-bB9-472">
          <mxGeometry width="50" height="50" relative="1" as="geometry">
            <mxPoint x="349.97" y="680" as="sourcePoint" />
            <mxPoint x="399.97" y="630" as="targetPoint" />
          </mxGeometry>
        </mxCell>
        <mxCell id="vdaxjqXT8XuvJRHG-bB9-496" value="V17" style="endArrow=classic;html=1;rounded=0;exitX=0.5;exitY=1;exitDx=0;exitDy=0;entryX=0.5;entryY=0;entryDx=0;entryDy=0;" edge="1" parent="1" source="vdaxjqXT8XuvJRHG-bB9-470" target="vdaxjqXT8XuvJRHG-bB9-472">
          <mxGeometry width="50" height="50" relative="1" as="geometry">
            <mxPoint x="304.97" y="760" as="sourcePoint" />
            <mxPoint x="254.97000000000003" y="770" as="targetPoint" />
          </mxGeometry>
        </mxCell>
        <mxCell id="vdaxjqXT8XuvJRHG-bB9-497" value="V20" style="endArrow=classic;html=1;rounded=0;entryX=0.5;entryY=0;entryDx=0;entryDy=0;exitX=0.5;exitY=1;exitDx=0;exitDy=0;" edge="1" parent="1" source="vdaxjqXT8XuvJRHG-bB9-474" target="vdaxjqXT8XuvJRHG-bB9-473">
          <mxGeometry width="50" height="50" relative="1" as="geometry">
            <mxPoint x="314.97" y="770" as="sourcePoint" />
            <mxPoint x="274.97" y="790" as="targetPoint" />
          </mxGeometry>
        </mxCell>
        <mxCell id="vdaxjqXT8XuvJRHG-bB9-498" value="V19" style="endArrow=classic;html=1;rounded=0;entryX=0.5;entryY=0;entryDx=0;entryDy=0;exitX=0.5;exitY=1;exitDx=0;exitDy=0;" edge="1" parent="1" source="vdaxjqXT8XuvJRHG-bB9-475" target="vdaxjqXT8XuvJRHG-bB9-473">
          <mxGeometry width="50" height="50" relative="1" as="geometry">
            <mxPoint x="324.97" y="780" as="sourcePoint" />
            <mxPoint x="284.97" y="800" as="targetPoint" />
          </mxGeometry>
        </mxCell>
        <mxCell id="vdaxjqXT8XuvJRHG-bB9-499" value="V21" style="curved=1;endArrow=classic;html=1;rounded=0;entryX=0;entryY=0.5;entryDx=0;entryDy=0;exitX=0;exitY=0.5;exitDx=0;exitDy=0;" edge="1" parent="1" source="vdaxjqXT8XuvJRHG-bB9-470" target="vdaxjqXT8XuvJRHG-bB9-472">
          <mxGeometry width="50" height="50" relative="1" as="geometry">
            <mxPoint x="129.97000000000003" y="820" as="sourcePoint" />
            <mxPoint x="179.97000000000003" y="770" as="targetPoint" />
            <Array as="points">
              <mxPoint x="179.97000000000003" y="735" />
              <mxPoint x="189.97000000000003" y="790" />
              <mxPoint x="209.97000000000003" y="785" />
            </Array>
          </mxGeometry>
        </mxCell>
        <mxCell id="vdaxjqXT8XuvJRHG-bB9-500" value="V22" style="curved=1;endArrow=classic;html=1;rounded=0;entryX=1;entryY=0.5;entryDx=0;entryDy=0;exitX=1;exitY=0.5;exitDx=0;exitDy=0;" edge="1" parent="1" source="vdaxjqXT8XuvJRHG-bB9-474" target="vdaxjqXT8XuvJRHG-bB9-473">
          <mxGeometry width="50" height="50" relative="1" as="geometry">
            <mxPoint x="509.97" y="740" as="sourcePoint" />
            <mxPoint x="549.97" y="790" as="targetPoint" />
            <Array as="points">
              <mxPoint x="489.97" y="740" />
              <mxPoint x="519.97" y="770" />
              <mxPoint x="459.97" y="790" />
            </Array>
          </mxGeometry>
        </mxCell>
        <mxCell id="vdaxjqXT8XuvJRHG-bB9-501" value="V24" style="edgeStyle=orthogonalEdgeStyle;rounded=0;orthogonalLoop=1;jettySize=auto;html=1;entryX=1;entryY=0.5;entryDx=0;entryDy=0;curved=1;exitX=0.5;exitY=1;exitDx=0;exitDy=0;" edge="1" parent="1" source="vdaxjqXT8XuvJRHG-bB9-473" target="vdaxjqXT8XuvJRHG-bB9-462">
          <mxGeometry relative="1" as="geometry">
            <mxPoint x="264.97" y="810" as="sourcePoint" />
            <mxPoint x="249.97000000000003" y="535" as="targetPoint" />
            <Array as="points">
              <mxPoint x="430" y="800" />
              <mxPoint x="430" y="830" />
              <mxPoint x="540" y="830" />
              <mxPoint x="540" y="535" />
              <mxPoint x="380" y="535" />
              <mxPoint x="380" y="525" />
            </Array>
          </mxGeometry>
        </mxCell>
        <mxCell id="vdaxjqXT8XuvJRHG-bB9-502" value="1" style="text;html=1;align=center;verticalAlign=middle;whiteSpace=wrap;rounded=0;fontStyle=1" vertex="1" parent="1">
          <mxGeometry x="264.97" y="500" width="60" height="30" as="geometry" />
        </mxCell>
        <mxCell id="vdaxjqXT8XuvJRHG-bB9-503" value="17" style="text;html=1;align=center;verticalAlign=middle;whiteSpace=wrap;rounded=0;fontStyle=1" vertex="1" parent="1">
          <mxGeometry x="230" y="540" width="60" height="30" as="geometry" />
        </mxCell>
        <mxCell id="vdaxjqXT8XuvJRHG-bB9-504" value="18" style="text;html=1;align=center;verticalAlign=middle;whiteSpace=wrap;rounded=0;fontStyle=1" vertex="1" parent="1">
          <mxGeometry x="294.97" y="540" width="60" height="30" as="geometry" />
        </mxCell>
        <mxCell id="vdaxjqXT8XuvJRHG-bB9-505" value="2" style="text;html=1;align=center;verticalAlign=middle;whiteSpace=wrap;rounded=0;fontStyle=1" vertex="1" parent="1">
          <mxGeometry x="310" y="550" width="60" height="30" as="geometry" />
        </mxCell>
        <mxCell id="vdaxjqXT8XuvJRHG-bB9-506" value="13" style="text;html=1;align=center;verticalAlign=middle;whiteSpace=wrap;rounded=0;fontStyle=1" vertex="1" parent="1">
          <mxGeometry x="340" y="590" width="60" height="30" as="geometry" />
        </mxCell>
        <mxCell id="vdaxjqXT8XuvJRHG-bB9-507" value="15" style="text;html=1;align=center;verticalAlign=middle;whiteSpace=wrap;rounded=0;fontStyle=1" vertex="1" parent="1">
          <mxGeometry x="270" y="590" width="60" height="30" as="geometry" />
        </mxCell>
        <mxCell id="vdaxjqXT8XuvJRHG-bB9-508" value="70" style="text;html=1;align=center;verticalAlign=middle;whiteSpace=wrap;rounded=0;fontStyle=1" vertex="1" parent="1">
          <mxGeometry x="520" y="660" width="60" height="30" as="geometry" />
        </mxCell>
        <mxCell id="vdaxjqXT8XuvJRHG-bB9-509" value="60" style="text;html=1;align=center;verticalAlign=middle;whiteSpace=wrap;rounded=0;fontStyle=1" vertex="1" parent="1">
          <mxGeometry x="120" y="650" width="60" height="30" as="geometry" />
        </mxCell>
        <mxCell id="vdaxjqXT8XuvJRHG-bB9-510" value="30" style="text;html=1;align=center;verticalAlign=middle;whiteSpace=wrap;rounded=0;fontStyle=1" vertex="1" parent="1">
          <mxGeometry x="455" y="630" width="25" height="20" as="geometry" />
        </mxCell>
        <mxCell id="vdaxjqXT8XuvJRHG-bB9-511" value="2" style="text;html=1;align=center;verticalAlign=middle;whiteSpace=wrap;rounded=0;fontStyle=1" vertex="1" parent="1">
          <mxGeometry x="330" y="655" width="25" height="20" as="geometry" />
        </mxCell>
        <mxCell id="vdaxjqXT8XuvJRHG-bB9-512" value="1" style="text;html=1;align=center;verticalAlign=middle;whiteSpace=wrap;rounded=0;fontStyle=1" vertex="1" parent="1">
          <mxGeometry x="270" y="610" width="25" height="20" as="geometry" />
        </mxCell>
        <mxCell id="vdaxjqXT8XuvJRHG-bB9-513" value="15" style="text;html=1;align=center;verticalAlign=middle;whiteSpace=wrap;rounded=0;fontStyle=1" vertex="1" parent="1">
          <mxGeometry x="247.5" y="640" width="25" height="20" as="geometry" />
        </mxCell>
        <mxCell id="vdaxjqXT8XuvJRHG-bB9-514" value="16" style="text;html=1;align=center;verticalAlign=middle;whiteSpace=wrap;rounded=0;fontStyle=1" vertex="1" parent="1">
          <mxGeometry x="315" y="640" width="25" height="20" as="geometry" />
        </mxCell>
        <mxCell id="vdaxjqXT8XuvJRHG-bB9-515" value="27" style="text;html=1;align=center;verticalAlign=middle;whiteSpace=wrap;rounded=0;fontStyle=1" vertex="1" parent="1">
          <mxGeometry x="205" y="640" width="25" height="20" as="geometry" />
        </mxCell>
        <mxCell id="vdaxjqXT8XuvJRHG-bB9-516" value="20" style="text;html=1;align=center;verticalAlign=middle;whiteSpace=wrap;rounded=0;fontStyle=1" vertex="1" parent="1">
          <mxGeometry x="349.97" y="720" width="25" height="20" as="geometry" />
        </mxCell>
        <mxCell id="vdaxjqXT8XuvJRHG-bB9-517" value="18" style="text;html=1;align=center;verticalAlign=middle;whiteSpace=wrap;rounded=0;fontStyle=1" vertex="1" parent="1">
          <mxGeometry x="305" y="720" width="25" height="20" as="geometry" />
        </mxCell>
        <mxCell id="vdaxjqXT8XuvJRHG-bB9-518" value="18" style="text;html=1;align=center;verticalAlign=middle;whiteSpace=wrap;rounded=0;fontStyle=1" vertex="1" parent="1">
          <mxGeometry x="384.97" y="700" width="25" height="20" as="geometry" />
        </mxCell>
        <mxCell id="vdaxjqXT8XuvJRHG-bB9-519" value="20" style="text;html=1;align=center;verticalAlign=middle;whiteSpace=wrap;rounded=0;fontStyle=1" vertex="1" parent="1">
          <mxGeometry x="272.5" y="700" width="25" height="20" as="geometry" />
        </mxCell>
        <mxCell id="vdaxjqXT8XuvJRHG-bB9-520" value="15" style="text;html=1;align=center;verticalAlign=middle;whiteSpace=wrap;rounded=0;fontStyle=1" vertex="1" parent="1">
          <mxGeometry x="479.97" y="780" width="25" height="20" as="geometry" />
        </mxCell>
        <mxCell id="vdaxjqXT8XuvJRHG-bB9-521" value="20" style="text;html=1;align=center;verticalAlign=middle;whiteSpace=wrap;rounded=0;fontStyle=1" vertex="1" parent="1">
          <mxGeometry x="449.97" y="750" width="25" height="20" as="geometry" />
        </mxCell>
        <mxCell id="vdaxjqXT8XuvJRHG-bB9-522" value="17" style="text;html=1;align=center;verticalAlign=middle;whiteSpace=wrap;rounded=0;fontStyle=1" vertex="1" parent="1">
          <mxGeometry x="384.97" y="760" width="25" height="20" as="geometry" />
        </mxCell>
        <mxCell id="vdaxjqXT8XuvJRHG-bB9-523" value="3" style="text;html=1;align=center;verticalAlign=middle;whiteSpace=wrap;rounded=0;fontStyle=1" vertex="1" parent="1">
          <mxGeometry x="425" y="720" width="25" height="20" as="geometry" />
        </mxCell>
        <mxCell id="vdaxjqXT8XuvJRHG-bB9-524" value="3" style="text;html=1;align=center;verticalAlign=middle;whiteSpace=wrap;rounded=0;fontStyle=1" vertex="1" parent="1">
          <mxGeometry x="229.97000000000003" y="720" width="25" height="20" as="geometry" />
        </mxCell>
        <mxCell id="vdaxjqXT8XuvJRHG-bB9-525" value="15" style="text;html=1;align=center;verticalAlign=middle;whiteSpace=wrap;rounded=0;fontStyle=1" vertex="1" parent="1">
          <mxGeometry x="199.97000000000003" y="770" width="25" height="20" as="geometry" />
        </mxCell>
        <mxCell id="vdaxjqXT8XuvJRHG-bB9-526" value="16" style="text;html=1;align=center;verticalAlign=middle;whiteSpace=wrap;rounded=0;fontStyle=1" vertex="1" parent="1">
          <mxGeometry x="264.97" y="760" width="25" height="20" as="geometry" />
        </mxCell>
        <mxCell id="vdaxjqXT8XuvJRHG-bB9-527" value="13" style="text;html=1;align=center;verticalAlign=middle;whiteSpace=wrap;rounded=0;fontStyle=1" vertex="1" parent="1">
          <mxGeometry x="205" y="750" width="25" height="20" as="geometry" />
        </mxCell>
        <mxCell id="vdaxjqXT8XuvJRHG-bB9-528" value="&lt;b&gt;&lt;i&gt;&lt;font style=&quot;font-size: 18px; background-color: rgb(255, 71, 71);&quot;&gt;0&lt;/font&gt;&lt;/i&gt;&lt;/b&gt;" style="text;html=1;align=center;verticalAlign=middle;whiteSpace=wrap;rounded=0;fillColor=none;" vertex="1" parent="1">
          <mxGeometry x="264.91" y="660" width="25.06" height="27.5" as="geometry" />
        </mxCell>
        <mxCell id="vdaxjqXT8XuvJRHG-bB9-530" value="&lt;b&gt;&lt;i&gt;&lt;font style=&quot;font-size: 18px; background-color: rgb(255, 71, 71);&quot;&gt;0&lt;/font&gt;&lt;/i&gt;&lt;/b&gt;" style="text;html=1;align=center;verticalAlign=middle;whiteSpace=wrap;rounded=0;fillColor=none;" vertex="1" parent="1">
          <mxGeometry x="390" y="655" width="25.06" height="27.5" as="geometry" />
        </mxCell>
        <mxCell id="vdaxjqXT8XuvJRHG-bB9-531" value="&lt;b&gt;&lt;i&gt;&lt;font style=&quot;font-size: 18px; background-color: rgb(255, 71, 71);&quot;&gt;0&lt;/font&gt;&lt;/i&gt;&lt;/b&gt;" style="text;html=1;align=center;verticalAlign=middle;whiteSpace=wrap;rounded=0;fillColor=none;" vertex="1" parent="1">
          <mxGeometry x="294.90999999999997" y="740" width="25.06" height="27.5" as="geometry" />
        </mxCell>
        <mxCell id="vdaxjqXT8XuvJRHG-bB9-532" value="&lt;b&gt;&lt;i&gt;&lt;font style=&quot;font-size: 18px; background-color: rgb(255, 71, 71);&quot;&gt;0&lt;/font&gt;&lt;/i&gt;&lt;/b&gt;" style="text;html=1;align=center;verticalAlign=middle;whiteSpace=wrap;rounded=0;fillColor=none;" vertex="1" parent="1">
          <mxGeometry x="364.94" y="742.5" width="25.06" height="27.5" as="geometry" />
        </mxCell>
        <mxCell id="vdaxjqXT8XuvJRHG-bB9-533" value="&lt;b&gt;&lt;i&gt;&lt;font style=&quot;font-size: 18px; background-color: rgb(255, 71, 71);&quot;&gt;0&lt;/font&gt;&lt;/i&gt;&lt;/b&gt;" style="text;html=1;align=center;verticalAlign=middle;whiteSpace=wrap;rounded=0;fillColor=none;" vertex="1" parent="1">
          <mxGeometry x="439.97" y="700" width="25.06" height="27.5" as="geometry" />
        </mxCell>
        <mxCell id="vdaxjqXT8XuvJRHG-bB9-534" value="&lt;b&gt;&lt;i&gt;&lt;font style=&quot;font-size: 18px; background-color: rgb(255, 71, 71);&quot;&gt;0&lt;/font&gt;&lt;/i&gt;&lt;/b&gt;" style="text;html=1;align=center;verticalAlign=middle;whiteSpace=wrap;rounded=0;fillColor=none;" vertex="1" parent="1">
          <mxGeometry x="399.94" y="790" width="25.06" height="27.5" as="geometry" />
        </mxCell>
        <mxCell id="vdaxjqXT8XuvJRHG-bB9-535" value="&lt;b&gt;&lt;i&gt;&lt;font style=&quot;font-size: 18px; background-color: rgb(255, 71, 71);&quot;&gt;0&lt;/font&gt;&lt;/i&gt;&lt;/b&gt;" style="text;html=1;align=center;verticalAlign=middle;whiteSpace=wrap;rounded=0;fillColor=none;" vertex="1" parent="1">
          <mxGeometry x="254.97" y="790" width="25.06" height="27.5" as="geometry" />
        </mxCell>
        <mxCell id="vdaxjqXT8XuvJRHG-bB9-536" value="&lt;b&gt;&lt;i&gt;&lt;font style=&quot;font-size: 18px; background-color: rgb(255, 71, 71);&quot;&gt;0&lt;/font&gt;&lt;/i&gt;&lt;/b&gt;" style="text;html=1;align=center;verticalAlign=middle;whiteSpace=wrap;rounded=0;fillColor=none;" vertex="1" parent="1">
          <mxGeometry x="190" y="700" width="25.06" height="27.5" as="geometry" />
        </mxCell>
        <mxCell id="vdaxjqXT8XuvJRHG-bB9-537" value="&lt;b&gt;&lt;i&gt;&lt;font style=&quot;font-size: 18px; background-color: rgb(255, 71, 71);&quot;&gt;0&lt;/font&gt;&lt;/i&gt;&lt;/b&gt;" style="text;html=1;align=center;verticalAlign=middle;whiteSpace=wrap;rounded=0;fillColor=none;" vertex="1" parent="1">
          <mxGeometry x="229.91" y="592.5" width="25.06" height="27.5" as="geometry" />
        </mxCell>
        <mxCell id="vdaxjqXT8XuvJRHG-bB9-538" value="&lt;b&gt;&lt;i&gt;&lt;font style=&quot;font-size: 18px; background-color: rgb(255, 71, 71);&quot;&gt;0&lt;/font&gt;&lt;/i&gt;&lt;/b&gt;" style="text;html=1;align=center;verticalAlign=middle;whiteSpace=wrap;rounded=0;fillColor=none;" vertex="1" parent="1">
          <mxGeometry x="344.91" y="620" width="25.06" height="27.5" as="geometry" />
        </mxCell>
        <mxCell id="vdaxjqXT8XuvJRHG-bB9-539" value="&lt;b&gt;&lt;i&gt;&lt;font style=&quot;font-size: 18px; background-color: rgb(255, 71, 71);&quot;&gt;0&lt;/font&gt;&lt;/i&gt;&lt;/b&gt;" style="text;html=1;align=center;verticalAlign=middle;whiteSpace=wrap;rounded=0;fillColor=none;" vertex="1" parent="1">
          <mxGeometry x="388" y="540" width="25.06" height="27.5" as="geometry" />
        </mxCell>
        <mxCell id="vdaxjqXT8XuvJRHG-bB9-541" value="&lt;b&gt;&lt;i&gt;&lt;font style=&quot;font-size: 18px; background-color: rgb(255, 71, 71);&quot;&gt;0&lt;/font&gt;&lt;/i&gt;&lt;/b&gt;" style="text;html=1;align=center;verticalAlign=middle;whiteSpace=wrap;rounded=0;fillColor=none;" vertex="1" parent="1">
          <mxGeometry x="264.90999999999997" y="561.25" width="25.06" height="27.5" as="geometry" />
        </mxCell>
        <mxCell id="vdaxjqXT8XuvJRHG-bB9-542" value="&lt;b&gt;&lt;i&gt;&lt;font style=&quot;font-size: 18px; background-color: rgb(255, 71, 71);&quot;&gt;0&lt;/font&gt;&lt;/i&gt;&lt;/b&gt;" style="text;html=1;align=center;verticalAlign=middle;whiteSpace=wrap;rounded=0;fillColor=none;" vertex="1" parent="1">
          <mxGeometry x="242.47" y="490" width="25.06" height="27.5" as="geometry" />
        </mxCell>
        <mxCell id="vdaxjqXT8XuvJRHG-bB9-543" value="&lt;b&gt;&lt;i&gt;&lt;font style=&quot;font-size: 18px; background-color: rgb(255, 71, 71);&quot;&gt;0&lt;/font&gt;&lt;/i&gt;&lt;/b&gt;" style="text;html=1;align=center;verticalAlign=middle;whiteSpace=wrap;rounded=0;fillColor=none;" vertex="1" parent="1">
          <mxGeometry x="330" y="490" width="25.06" height="27.5" as="geometry" />
        </mxCell>
      </root>
    </mxGraphModel>
  </diagram>
</mxfile>
